Coordinates
version=1
nRows=26
nColumns=24
inDegrees=yes

Units are S.I. units (second, meters, Newtons, ...)
Angles are in degrees.

endheader
time	pelvis_tilt	pelvis_list	pelvis_rotation	pelvis_tx	pelvis_ty	pelvis_tz	hip_flexion_r	hip_adduction_r	hip_rotation_r	knee_angle_r	ankle_angle_r	subtalar_angle_r	mtp_angle_r	hip_flexion_l	hip_adduction_l	hip_rotation_l	knee_angle_l	ankle_angle_l	subtalar_angle_l	mtp_angle_l	lumbar_extension	lumbar_bending	lumbar_rotation
      4.09000000	      7.67684830	      5.70358591	      2.41239660	      0.17251837	      1.01822451	     -0.00932687	      0.41453426	     -9.17248416	     -8.93233441	    -62.97250798	     -3.10254556	      0.00000000	      0.00000000	      1.96180127	      8.83073653	      2.36183504	    -17.27917486	     10.80416151	      0.00000000	      0.00000000	    -18.30884096	     -7.63144360	     -0.61991345
      4.10000000	      7.80813642	      5.58872912	      2.31540080	      0.17262758	      1.01890151	     -0.01033208	      1.74954608	     -9.32754829	     -8.73105300	    -65.04457705	     -2.42627606	      0.00000000	      0.00000000	      1.06714813	      8.77046480	      2.67102209	    -16.80166885	     11.39670220	      0.00000000	      0.00000000	    -18.39833332	     -7.45636793	     -0.85958119
      4.11000000	      7.91481525	      5.41556398	      2.32171897	      0.17260117	      1.01970080	     -0.01130136	      3.03726052	     -9.35975194	     -8.59784006	    -66.80897861	     -1.57507882	      0.00000000	      0.00000000	      0.28951416	      8.63199227	      2.76629122	    -16.48809381	     11.64830274	      0.00000000	      0.00000000	    -18.47672946	     -7.19296163	     -1.16927711
      4.12000000	      8.00811615	      5.19015807	      2.33218787	      0.17239461	      1.02057794	     -0.01214369	      4.32501125	     -9.27411199	     -8.42917788	    -68.31611164	     -0.63008038	      0.00000000	      0.00000000	     -0.45750117	      8.43079067	      2.91019836	    -16.17730051	     11.87995038	      0.00000000	      0.00000000	    -18.55389091	     -6.88097856	     -1.44764956
      4.13000000	      8.06676557	      4.95520338	      2.33807877	      0.17205142	      1.02145414	     -0.01289239	      5.63227865	     -9.12286146	     -8.21141650	    -69.58689799	      0.43095490	      0.00000000	      0.00000000	     -1.13202534	      8.21703800	      3.00857706	    -15.91651774	     12.07758220	      0.00000000	      0.00000000	    -18.60385348	     -6.56686388	     -1.68563578
      4.14000000	      8.17162431	      4.64874719	      2.36334172	      0.17169615	      1.02253387	     -0.01357382	      6.82496167	     -8.82444463	     -7.97377036	    -70.52032842	      1.29954859	      0.00000000	      0.00000000	     -1.91199806	      7.91743428	      3.26298673	    -15.54821201	     12.27926470	      0.00000000	      0.00000000	    -18.69990423	     -6.17229149	     -1.90452202
      4.15000000	      8.26423094	      4.33335278	      2.37161898	      0.17124193	      1.02365525	     -0.01420841	      7.99222097	     -8.46192968	     -7.68294609	    -71.17444171	      2.21605953	      0.00000000	      0.00000000	     -2.68417205	      7.60582272	      3.49405199	    -15.15012680	     12.44913132	      0.00000000	      0.00000000	    -18.79518169	     -5.76883992	     -2.08895874
      4.16000000	      8.35327283	      4.02067714	      2.38793311	      0.17071034	      1.02479115	     -0.01474638	      9.12677276	     -8.05189461	     -7.37797197	    -71.57565678	      3.00600285	      0.00000000	      0.00000000	     -3.44779604	      7.28393855	      3.70293735	    -14.74649406	     12.58102863	      0.00000000	      0.00000000	    -18.89479779	     -5.37973656	     -2.26420828
      4.17000000	      8.43284374	      3.73139161	      2.40963378	      0.17005764	      1.02587418	     -0.01524882	     10.23017284	     -7.64542693	     -7.07547331	    -71.73330142	      3.63197083	      0.00000000	      0.00000000	     -4.18567447	      6.98150787	      3.88867182	    -14.36537784	     12.68372447	      0.00000000	      0.00000000	    -19.00355751	     -5.01649842	     -2.45961803
      4.18000000	      8.49364662	      3.38628302	      2.38539438	      0.16945459	      1.02691478	     -0.01551446	     11.27355356	     -7.10349267	     -6.70550934	    -71.59673403	      4.40372754	      0.00000000	      0.00000000	     -4.94556194	      6.59963085	      3.96411709	    -13.88914138	     12.74870196	      0.00000000	      0.00000000	    -19.07187624	     -4.62256546	     -2.57721123
      4.19000000	      8.54186603	      3.09755271	      2.37867234	      0.16867165	      1.02788225	     -0.01584406	     12.29121165	     -6.63494174	     -6.36957188	    -71.23485402	      4.94435058	      0.00000000	      0.00000000	     -5.66243333	      6.28197683	      4.04243487	    -13.44627662	     12.80738565	      0.00000000	      0.00000000	    -19.16964421	     -4.27367056	     -2.74124133
      4.20000000	      8.55545376	      2.84920604	      2.38934291	      0.16782548	      1.02867833	     -0.01609548	     13.28495508	     -6.19978138	     -6.05235012	    -70.65744624	      5.41460278	      0.00000000	      0.00000000	     -6.34034049	      5.99688485	      4.09648345	    -13.00817731	     12.86455480	      0.00000000	      0.00000000	    -19.23833645	     -3.97903389	     -2.95342656
      4.21000000	      8.63479446	      2.51603533	      2.31952528	      0.16692597	      1.02952401	     -0.01609427	     14.11272942	     -5.61373449	     -5.68201004	    -69.76945558	      6.02065911	      0.00000000	      0.00000000	     -7.10470177	      5.60885430	      3.94471786	    -12.50718239	     12.81090701	      0.00000000	      0.00000000	    -19.39371222	     -3.61462400	     -3.04841932
      4.22000000	      8.59193791	      2.31665089	      2.31967230	      0.16597847	      1.03000461	     -0.01625216	     15.02274542	     -5.24071966	     -5.41051555	    -68.72840222	      6.45393370	      0.00000000	      0.00000000	     -7.74362878	      5.37441623	      3.95989282	    -12.00011484	     12.86508756	      0.00000000	      0.00000000	    -19.42608693	     -3.37875871	     -3.26888942
      4.23000000	      8.57884765	      2.10174412	      2.29390509	      0.16493940	      1.03043598	     -0.01624395	     15.80192366	     -4.82126948	     -5.11970416	    -67.41707553	      6.96127660	      0.00000000	      0.00000000	     -8.39956102	      5.11263566	      3.83431596	    -11.50624816	     12.83057497	      0.00000000	      0.00000000	    -19.51354357	     -3.13788820	     -3.45199585
      4.24000000	      8.57614439	      1.93464365	      2.26841259	      0.16389627	      1.03074431	     -0.01624492	     16.47806310	     -4.48254285	     -4.87011466	    -65.87238120	      7.40519624	      0.00000000	      0.00000000	     -9.07889385	      4.90454577	      3.69303256	    -10.98496764	     12.81056137	      0.00000000	      0.00000000	    -19.62284932	     -2.94326155	     -3.66095985
      4.25000000	      8.45573556	      2.01181727	      2.29224302	      0.16259184	      1.03066714	     -0.01639700	     17.26095092	     -4.48401771	     -4.66500583	    -64.22175764	      7.59262315	      0.00000000	      0.00000000	     -9.47104715	      4.98035877	      3.63573501	    -10.80252107	     12.92180445	      0.00000000	      0.00000000	    -19.66004774	     -2.99823041	     -3.99145083
      4.26000000	      8.32534890	      1.75585768	      2.26763963	      0.16170385	      1.03056506	     -0.01623730	     17.85379729	     -4.05676116	     -4.49077223	    -62.19061661	      8.21131287	      0.00000000	      0.00000000	    -10.13797459	      4.66027300	      3.49790496	    -10.01558179	     12.82530485	      0.00000000	      0.00000000	    -19.61213622	     -2.71652864	     -4.14997938
      4.27000000	      8.14684991	      1.90729926	      2.27349323	      0.16037098	      1.03013174	     -0.01635715	     18.53430803	     -4.17384033	     -4.31232986	    -60.14815513	      8.36485519	      0.00000000	      0.00000000	    -10.47092022	      4.82234580	      3.43094569	     -9.82415955	     12.96430402	      0.00000000	      0.00000000	    -19.60451087	     -2.85039118	     -4.43956808
      4.28000000	      7.86177240	      1.79142811	      2.29018613	      0.15957668	      1.02951206	     -0.01630200	     19.12272112	     -3.99594916	     -4.27437659	    -57.76006970	      8.79009683	      0.00000000	      0.00000000	    -10.95114314	      4.66829627	      3.44003047	     -9.11049990	     12.95951832	      0.00000000	      0.00000000	    -19.38853829	     -2.70620037	     -4.68319259
      4.29000000	      7.63909936	      1.97280718	      2.27138389	      0.15833435	      1.02880481	     -0.01629026	     19.65249651	     -4.16970260	     -4.16269148	    -55.31791620	      8.95092509	      0.00000000	      0.00000000	    -11.25805514	      4.86427152	      3.37086170	     -8.88774447	     13.08249601	      0.00000000	      0.00000000	    -19.33417673	     -2.88406797	     -4.92834558
      4.30000000	      7.35932580	      2.11585061	      2.26421127	      0.15727464	      1.02793238	     -0.01624286	     20.11967259	     -4.32013890	     -4.13481264	    -52.65584636	      9.16280591	      0.00000000	      0.00000000	    -11.56363930	      5.01469814	      3.34459732	     -8.54739249	     13.19237657	      0.00000000	      0.00000000	    -19.19024515	     -3.01890172	     -5.14862214
      4.31000000	      7.31692692	      1.83399848	      2.44930710	      0.15643195	      1.02758560	     -0.01627254	     20.01334162	     -4.06585871	     -4.52332842	    -49.47613190	      9.43956751	      0.00000000	      0.00000000	    -12.22853586	      4.63433742	      3.50088338	     -7.96550419	     13.09091062	      0.00000000	      0.00000000	    -19.28868596	     -2.62293915	     -5.41207034
      4.32000000	      6.98869209	      2.12441640	      2.34075753	      0.15536378	      1.02644741	     -0.01607566	     20.40999384	     -4.39161643	     -4.55525563	    -46.60186756	      9.66227856	      0.00000000	      0.00000000	    -12.44608785	      4.97633088	      3.47486560	     -7.73224312	     13.29580557	      0.00000000	      0.00000000	    -19.11110666	     -2.94413843	     -5.53377657
      4.33000000	      6.72612803	      1.92352869	      2.52199103	      0.15449047	      1.02559657	     -0.01600330	     20.37220726	     -4.23520986	     -5.03988373	    -43.15045127	     10.04805455	      0.00000000	      0.00000000	    -12.74590578	      4.70147545	      3.68620429	     -7.41370672	     13.32133561	      0.00000000	      0.00000000	    -18.97247442	     -2.64924589	     -5.75700525
      4.34000000	      6.72112869	      1.84513806	      2.60139366	      0.15350250	      1.02509240	     -0.01575919	     19.95408646	     -4.16282510	     -5.50493717	    -39.51647243	     10.26741113	      0.00000000	      0.00000000	    -13.28137651	      4.56929750	      3.84140848	     -7.21039478	     13.55632672	      0.00000000	      0.00000000	    -19.16484244	     -2.50396534	     -5.90003888
